<?xml version="1.0" standalone="no"?>
<!DOCTYPE svg PUBLIC "-//W3C//DTD SVG 20010904//EN"
 "http://www.w3.org/TR/2001/REC-SVG-20010904/DTD/svg10.dtd">
<svg version="1.0" xmlns="http://www.w3.org/2000/svg"
 width="27.000000pt" height="26.000000pt" viewBox="0 0 27.000000 26.000000"
 preserveAspectRatio="xMidYMid meet">

<g transform="translate(0.000000,26.000000) scale(0.100000,-0.100000)"
fill="#000000" stroke="none">
<path d="M166 246 c3 -8 12 -17 20 -20 12 -4 12 -2 4 14 -12 23 -32 27 -24 6z"/>
<path d="M130 220 c0 -5 -8 -10 -19 -10 -14 0 -17 -6 -13 -25 5 -29 -5 -32
-24 -7 -12 15 -12 15 -7 -7 5 -20 3 -23 -10 -18 -14 5 -14 2 3 -27 l18 -34
-29 -28 c-16 -15 -29 -36 -29 -46 0 -16 3 -16 37 4 20 12 31 24 25 26 -25 8
-10 23 21 20 30 -3 32 -5 29 -36 -3 -31 12 -45 21 -19 3 9 7 9 20 -2 10 -7 17
-9 17 -3 0 6 -6 12 -12 15 -9 3 -7 10 7 21 13 10 15 15 6 16 -7 0 -11 6 -8 14
3 8 -1 17 -9 20 -8 3 -14 11 -14 17 0 7 8 5 19 -5 17 -16 24 -16 55 -5 42 15
42 34 1 34 -29 1 -51 34 -41 62 3 7 1 13 -3 13 -5 0 -12 -7 -15 -16 -5 -13 -9
-14 -21 -4 -18 15 -20 34 -3 24 7 -4 8 -3 4 4 -9 15 -26 16 -26 2z m43 -60 c4
-4 1 -12 -7 -19 -18 -15 -56 2 -56 25 0 11 7 13 28 8 15 -4 31 -10 35 -14z
m-23 -60 c0 -5 -9 -10 -20 -10 -11 0 -20 5 -20 10 0 6 9 10 20 10 11 0 20 -4
20 -10z m-93 -66 c-3 -3 -12 -4 -19 -1 -8 3 -5 6 6 6 11 1 17 -2 13 -5z"/>
<path d="M20 120 c13 -9 12 -12 -4 -25 -11 -8 -15 -15 -9 -15 7 0 15 5 18 10
4 6 11 7 17 4 6 -4 8 1 6 12 -2 10 -12 20 -23 22 -17 3 -17 1 -5 -8z"/>
</g>
</svg>
